<?xml version="1.0" standalone="no"?>
<!DOCTYPE svg PUBLIC "-//W3C//DTD SVG 20010904//EN"
 "http://www.w3.org/TR/2001/REC-SVG-20010904/DTD/svg10.dtd">
<svg version="1.0" xmlns="http://www.w3.org/2000/svg"
 width="205.000000pt" height="205.000000pt" viewBox="0 0 205.000000 205.000000"
 preserveAspectRatio="xMidYMid meet">
<metadata>
Created by potrace 1.11, written by Peter Selinger 2001-2013
</metadata>
<g transform="translate(0.000000,205.000000) scale(0.100000,-0.100000)"
fill="#000000" stroke="none">
<path d="M525 1777 l-500 -252 0 -500 0 -500 503 -253 502 -252 503 252 502
253 0 500 0 500 -500 252 c-275 139 -502 252 -505 252 -3 0 -230 -113 -505
-252z m826 -717 c93 -245 168 -448 169 -453 0 -4 -64 -6 -142 -5 l-142 3 -21
70 -21 70 -167 3 -166 2 -22 -75 -22 -75 -139 0 c-76 0 -138 2 -138 5 0 4 255
684 329 878 l11 28 152 -3 151 -3 168 -445z"/>
<path d="M973 1118 c-27 -90 -48 -166 -46 -170 2 -5 49 -8 104 -8 54 0 99 3
99 8 0 13 -93 317 -100 325 -4 4 -29 -65 -57 -155z"/>
</g>
</svg>
